<svg width="300" height="400" version="1.1" xmlns="http://www.w3.org/2000/svg">
    <line x1="200" y1="300" x2="200" y2="290" stroke="#F0E68C" stroke-width="2"></line>
    <line x1="202" y1="300" x2="202" y2="290" stroke="#BDB76B" stroke-width="2"></line>
    <line x1="200" y1="290" x2="193.15959713283885" y2="271.2061475845176" stroke="#F0E68C" stroke-width="2"></line>
    <line x1="202" y1="290" x2="195.15959713283885" y2="271.2061475845176" stroke="#BDB76B" stroke-width="2"></line>
    <line x1="193.15959713283885" y1="271.2061475845176" x2="175.9273990718811" y2="258.0545795996433" stroke="#F0E68C" stroke-width="2"></line>
    <path transform-origin="193.1596 271.2061" transform="rotate(265) " d="M193.1596, 271.2061 c16.0859, -17.4124 16.0859, -17.4124 0, -25.3797 Z" stroke="none" fill="#BDB76B"></path>
    <path transform-origin="193.1596 271.2061" transform="rotate(265) " d="M193.1596, 271.2061 c-17.7442, -20.5581 -17.7442, -20.5581 0, -25.3797 Z" stroke="none" fill="#F0E68C"></path>
    <line x1="195.15959713283885" y1="271.2061475845176" x2="177.9273990718811" y2="258.0545795996433" stroke="#BDB76B" stroke-width="2"></line>
    <line x1="175.9273990718811" y1="258.0545795996433" x2="180.76583698434266" y2="238.6486650742401" stroke="#F0E68C" stroke-width="2"></line>
    <line x1="177.9273990718811" y1="258.0545795996433" x2="182.76583698434266" y2="238.6486650742401" stroke="#BDB76B" stroke-width="2"></line>
    <g transform-origin="180.7658 238.6487" transform="rotate(241) scale(0.682 1) ">
        <path d="M191.4242, 234.9606 C197.7658, 238.6487 196.0823, 246.0247 189.0656, 245.2944 Z" stroke="none" fill="#00BFFF"></path>
        <path d="M191.4242, 242.3368 C191.3652, 251.9398 184.5487, 255.2224 181.8744, 246.9357 Z" stroke="none" fill="#00BFFF"></path>
        <path d="M185.6573, 246.9357 C176.983, 255.2224 170.1665, 251.9398 176.1074, 242.3368 Z" stroke="none" fill="#00BFFF"></path>
        <path d="M178.4661, 245.2944 C165.4494, 246.0247 163.7658, 238.6487 176.1074, 234.9606 Z" stroke="none" fill="#00BFFF"></path>
        <path d="M175.2656, 238.6487 C165.4494, 231.2726 170.1665, 225.3575 181.8744, 230.3616 Z" stroke="none" fill="#00BFFF"></path>
        <path d="M178.4661, 232.0029 C176.983, 222.0749 184.5487, 222.0749 189.0656, 232.0029 Z" stroke="none" fill="#00BFFF"></path>
        <path d="M185.6573, 230.3616 C191.3652, 225.3575 196.0823, 231.2726 192.266, 238.6487 Z" stroke="none" fill="#00BFFF"></path>
        <g></g>
        <polygon points="192.266 238.6487, 191.4242 242.3368, 189.0656 245.2944, 185.6573 246.9357, 181.8744 246.9357, 178.4661 245.2944, 176.1074 242.3368, 175.2656 238.6487, 176.1074 234.9606, 178.4661 232.0029, 181.8744 230.3616, 185.6573 230.3616, 189.0656 232.0029, 191.4242 234.9606" stroke="none" fill="#FFE4C4"></polygon>
    </g>
    <line x1="193.15959713283885" y1="271.2061475845176" x2="197.90656175007572" y2="250.05481860982792" stroke="#F0E68C" stroke-width="2"></line>
    <line x1="195.15959713283885" y1="271.2061475845176" x2="199.90656175007572" y2="250.05481860982792" stroke="#BDB76B" stroke-width="2"></line>
    <line x1="197.90656175007572" y1="250.05481860982792" x2="194.43359819639767" y2="230.3586635496436" stroke="#F0E68C" stroke-width="2"></line>
    <line x1="199.90656175007572" y1="250.05481860982792" x2="196.43359819639767" y2="230.3586635496436" stroke="#BDB76B" stroke-width="2"></line>
    <line x1="194.43359819639767" y1="230.3586635496436" x2="193.73560826227876" y2="210.3708470092641" stroke="#F0E68C" stroke-width="2"></line>
    <line x1="196.43359819639767" y1="230.3586635496436" x2="195.73560826227876" y2="210.3708470092641" stroke="#BDB76B" stroke-width="2"></line>
    <g transform-origin="193.7356 210.3708" transform="rotate(6) scale(0.945 1) ">
        <path d="M200.9435, 206.8997 C209.7356, 210.3708 208.1511, 217.313 198.7236, 216.6256 Z" stroke="none" fill="#00BFFF"></path>
        <path d="M200.9435, 213.842 C203.7114, 222.8802 197.2959, 225.9697 191.9554, 218.1704 Z" stroke="none" fill="#00BFFF"></path>
        <path d="M195.5158, 218.1704 C190.1753, 225.9697 183.7598, 222.8802 186.5277, 213.842 Z" stroke="none" fill="#00BFFF"></path>
        <path d="M188.7476, 216.6256 C179.3201, 217.313 177.7356, 210.3708 186.5277, 206.8997 Z" stroke="none" fill="#00BFFF"></path>
        <path d="M185.7354, 210.3708 C179.3201, 203.4287 183.7598, 197.8615 191.9554, 202.5712 Z" stroke="none" fill="#00BFFF"></path>
        <path d="M188.7476, 204.1161 C190.1753, 194.772 197.2959, 194.772 198.7236, 204.1161 Z" stroke="none" fill="#00BFFF"></path>
        <path d="M195.5158, 202.5712 C203.7114, 197.8615 208.1511, 203.4287 201.7358, 210.3708 Z" stroke="none" fill="#00BFFF"></path>
        <polygon points="201.7358 210.3708, 200.9435 213.842, 198.7236 216.6256, 195.5158 218.1704, 191.9554 218.1704, 188.7476 216.6256, 186.5277 213.842, 185.7354 210.3708, 186.5277 206.8997, 188.7476 204.1161, 191.9554 202.5712, 195.5158 202.5712, 198.7236 204.1161, 200.9435 206.8997" stroke="none" fill="#FFE4C4"></polygon>
    </g>
</svg>