<svg width="300" height="400" version="1.1" xmlns="http://www.w3.org/2000/svg">
    <line x1="200" y1="300" x2="200" y2="290" stroke="#98FB98" stroke-width="2"></line>
    <line x1="202" y1="300" x2="202" y2="290" stroke="#2E8B57" stroke-width="2"></line>
    <line x1="200" y1="290" x2="199.65095187121986" y2="270.00304609687277" stroke="#98FB98" stroke-width="2"></line>
    <line x1="202" y1="290" x2="201.65095187121986" y2="270.00304609687277" stroke="#2E8B57" stroke-width="2"></line>
    <line x1="199.65095187121986" y1="270.00304609687277" x2="211.96418137876512" y2="254.2428310255447" stroke="#98FB98" stroke-width="2"></line>
    <path transform-origin="199.651 270.003" transform="rotate(145) " d="M199.651, 270.003 c7.8604, -13.6884 7.8604, -13.6884 0, -28.6388 Z" stroke="none" fill="#2E8B57"></path>
    <path transform-origin="199.651 270.003" transform="rotate(145) " d="M199.651, 270.003 c-11.9159, -17.7881 -11.9159, -17.7881 0, -28.6388 Z" stroke="none" fill="#98FB98"></path>
    <line x1="201.65095187121986" y1="270.00304609687277" x2="213.96418137876512" y2="254.2428310255447" stroke="#2E8B57" stroke-width="2"></line>
    <line x1="211.96418137876512" y1="254.2428310255447" x2="197.82204575393743" y2="240.10069540291047" stroke="#98FB98" stroke-width="2"></line>
    <path transform-origin="211.9642 254.2428" transform="rotate(114) " d="M211.9642, 254.2428 c17.3521, -10.2105 17.3521, -10.2105 0, -33.3194 Z" stroke="none" fill="#2E8B57"></path>
    <path transform-origin="211.9642 254.2428" transform="rotate(114) " d="M211.9642, 254.2428 c-13.3927, -21.6705 -13.3927, -21.6705 0, -33.3194 Z" stroke="none" fill="#98FB98"></path>
    <line x1="213.96418137876512" y1="254.2428310255447" x2="199.82204575393743" y2="240.10069540291047" stroke="#2E8B57" stroke-width="2"></line>
    <line x1="197.82204575393743" y1="240.10069540291047" x2="174.3764765456784" y2="240.56202529705234" stroke="#98FB98" stroke-width="2"></line>
    <line x1="199.82204575393743" y1="240.10069540291047" x2="176.3764765456784" y2="240.56202529705234" stroke="#2E8B57" stroke-width="2"></line>
    <g transform-origin="174.3765 240.562" transform="rotate(80) scale(0.649 1) ">
        <path d="M183.6129, 243.0034 C192.3765, 240.562 190.5939, 248.3719 182.6162, 247.3705 Z" stroke="none" fill="#BC244C"></path>
        <path d="M183.6129, 246.1206 C185.5993, 254.635 178.3819, 258.1107 179.5771, 248.0642 Z" stroke="none" fill="#BC244C"></path>
        <path d="M181.1758, 248.0642 C170.3711, 258.1107 163.1537, 254.635 177.14, 246.1206 Z" stroke="none" fill="#BC244C"></path>
        <path d="M178.1368, 247.3705 C158.159, 248.3719 156.3765, 240.562 177.14, 243.0034 Z" stroke="none" fill="#BC244C"></path>
        <path d="M176.7843, 244.562 C158.159, 232.7521 163.1537, 226.4891 179.5771, 241.0599 Z" stroke="none" fill="#BC244C"></path>
        <path d="M178.1368, 241.7535 C170.3711, 223.0133 178.3819, 223.0133 182.6162, 241.7535 Z" stroke="none" fill="#BC244C"></path>
        <path d="M181.1758, 241.0599 C185.5993, 226.4891 190.5939, 232.7521 183.9687, 244.562 Z" stroke="none" fill="#BC244C"></path>

        <polygon points="183.9687 244.562, 183.6129 246.1206, 182.6162 247.3705, 181.1758 248.0642, 179.5771 248.0642, 178.1368 247.3705, 177.14 246.1206, 176.7843 244.562, 177.14 243.0034, 178.1368 241.7535, 179.5771 241.0599, 181.1758 241.0599, 182.6162 241.7535, 183.6129 243.0034" stroke="none" fill="#00008B"></polygon>
    </g>
    <line x1="197.82204575393743" y1="240.10069540291047" x2="198.28337564444286" y2="216.65512619457988" stroke="#98FB98" stroke-width="2"></line>
    <line x1="199.82204575393743" y1="240.10069540291047" x2="200.28337564444286" y2="216.65512619457988" stroke="#2E8B57" stroke-width="2"></line>
    <line x1="198.28337564444286" y1="216.65512619457988" x2="181.11179138082787" y2="196.278354503913" stroke="#98FB98" stroke-width="2"></line>
    <path transform-origin="198.2834 216.6551" transform="rotate(71) " d="M198.2834, 216.6551 c5.0626, -14.8789 5.0626, -14.8789 0, -35.6556 Z" stroke="none" fill="#2E8B57"></path>
    <path transform-origin="198.2834 216.6551" transform="rotate(71) " d="M198.2834, 216.6551 c-17.0036, -13.3081 -17.0036, -13.3081 0, -35.6556 Z" stroke="none" fill="#98FB98"></path>
    <line x1="200.28337564444286" y1="216.65512619457988" x2="183.11179138082787" y2="196.278354503913" stroke="#2E8B57" stroke-width="2"></line>
    <g transform-origin="181.1118 196.2784" transform="rotate(82) scale(0.878 1) ">
        <path d="M185.1684, 197.8063 C198.1118, 196.2784 196.4283, 203.6544 184.2271, 201.9308 Z" stroke="none" fill="#BC244C"></path>
        <path d="M185.1684, 200.7504 C191.7111, 209.5695 184.8946, 212.8521 181.3569, 202.5859 Z" stroke="none" fill="#BC244C"></path>
        <path d="M182.8667, 202.5859 C177.3289, 212.8521 170.5125, 209.5695 179.0551, 200.7504 Z" stroke="none" fill="#BC244C"></path>
        <path d="M179.9965, 201.9308 C165.7953, 203.6544 164.1118, 196.2784 179.0551, 197.8063 Z" stroke="none" fill="#BC244C"></path>
        <path d="M178.7192, 199.2784 C165.7953, 188.9023 170.5125, 182.9872 181.3569, 195.9708 Z" stroke="none" fill="#BC244C"></path>
        <path d="M179.9965, 196.6259 C177.3289, 179.7046 184.8946, 179.7046 184.2271, 196.6259 Z" stroke="none" fill="#BC244C"></path>
        <path d="M182.8667, 195.9708 C191.7111, 182.9872 196.4283, 188.9023 185.5044, 199.2784 Z" stroke="none" fill="#BC244C"></path>

        <polygon points="185.5044 199.2784, 185.1684 200.7504, 184.2271 201.9308, 182.8667 202.5859, 181.3569 202.5859, 179.9965 201.9308, 179.0551 200.7504, 178.7192 199.2784, 179.0551 197.8063, 179.9965 196.6259, 181.3569 195.9708, 182.8667 195.9708, 184.2271 196.6259, 185.1684 197.8063" stroke="none" fill="#00008B"></polygon>
    </g>
    <line x1="198.28337564444286" y1="216.65512619457988" x2="216.24325063144354" y2="196.96962337887055" stroke="#98FB98" stroke-width="2"></line>
    <line x1="200.28337564444286" y1="216.65512619457988" x2="218.24325063144354" y2="196.96962337887055" stroke="#2E8B57" stroke-width="2"></line>
    <g transform-origin="216.2433 196.9696" transform="rotate(71) scale(0.748 1) ">
        <path d="M228.8393, 197.2378 C236.2433, 196.9696 234.2626, 205.6473 227.7318, 202.0902 Z" stroke="none" fill="#BC244C"></path>
        <path d="M228.8393, 200.7014 C228.713, 212.6063 220.6937, 216.4682 224.3551, 202.8609 Z" stroke="none" fill="#BC244C"></path>
        <path d="M226.1314, 202.8609 C211.7928, 216.4682 203.7735, 212.6063 221.6472, 200.7014 Z" stroke="none" fill="#BC244C"></path>
        <path d="M222.7547, 202.0902 C198.2239, 205.6473 196.2433, 196.9696 221.6472, 197.2378 Z" stroke="none" fill="#BC244C"></path>
        <path d="M221.2519, 198.9696 C198.2239, 188.2919 203.7735, 181.333 224.3551, 195.0784 Z" stroke="none" fill="#BC244C"></path>
        <path d="M222.7547, 195.8491 C211.7928, 177.4711 220.6937, 177.4711 227.7318, 195.8491 Z" stroke="none" fill="#BC244C"></path>
        <path d="M226.1314, 195.0784 C228.713, 181.333 234.2626, 188.2919 229.2346, 198.9696 Z" stroke="none" fill="#BC244C"></path>

        <polygon points="229.2346 198.9696, 228.8393 200.7014, 227.7318 202.0902, 226.1314 202.8609, 224.3551 202.8609, 222.7547 202.0902, 221.6472 200.7014, 221.2519 198.9696, 221.6472 197.2378, 222.7547 195.8491, 224.3551 195.0784, 226.1314 195.0784, 227.7318 195.8491, 228.8393 197.2378" stroke="none" fill="#00008B"></polygon>
    </g>
</svg>