<svg width="300" height="400" version="1.1" xmlns="http://www.w3.org/2000/svg">
    <line x1="200" y1="300" x2="200" y2="290" stroke="#8FBC8B" stroke-width="2"></line>
    <line x1="202" y1="300" x2="202" y2="290" stroke="#008000" stroke-width="2"></line>
    <line x1="200" y1="290" x2="193.819660111911" y2="280.97886967428866" stroke="#8FBC8B" stroke-width="2"></line>
    <line x1="202" y1="290" x2="195.819660111911" y2="280.97886967428866" stroke="#008000" stroke-width="2"></line>
    <line x1="193.819660111911" y1="280.97886967428866" x2="192.42453063689095" y2="261.0275886691018" stroke="#8FBC8B" stroke-width="2"></line>
    <line x1="195.819660111911" y1="280.97886967428866" x2="194.42453063689095" y2="261.0275886691018" stroke="#008000" stroke-width="2"></line>
    <line x1="192.42453063689095" y1="261.0275886691018" x2="177.55019438736758" y2="244.4370513692576" stroke="#8FBC8B" stroke-width="2"></line>
    <path transform-origin="192.4245 261.0276" transform="rotate(246) " d="M192.4245, 261.0276 c14.1508, -20.8539 14.1508, -20.8539 0, -24.4205 Z" stroke="none" fill="#008000"></path>
    <path transform-origin="192.4245 261.0276" transform="rotate(246) " d="M192.4245, 261.0276 c-7.1332, -14.621 -7.1332, -14.621 0, -24.4205 Z" stroke="none" fill="#8FBC8B"></path>
    <line x1="194.42453063689095" y1="261.0275886691018" x2="179.55019438736758" y2="244.4370513692576" stroke="#008000" stroke-width="2"></line>
    <g transform-origin="177.5502 244.4371" transform="rotate(332) scale(0.965 1) ">
        <path d="M189.8667, 247.3583 C195.5502, 244.4371 193.7676, 252.247 188.5373, 253.1827 Z" stroke="none" fill="#DB7093"></path>
        <path d="M189.8667, 251.5158 C188.773, 258.51 181.5556, 261.9858 184.4841, 254.1079 Z" stroke="none" fill="#DB7093"></path>
        <path d="M186.6163, 254.1079 C173.5448, 261.9858 166.3274, 258.51 181.2337, 251.5158 Z" stroke="none" fill="#DB7093"></path>
        <path d="M182.5631, 253.1827 C161.3328, 252.247 159.5502, 244.4371 181.2337, 247.3583 Z" stroke="none" fill="#DB7093"></path>
        <path d="M180.7593, 249.4371 C161.3328, 236.6271 166.3274, 230.3641 184.4841, 244.7662 Z" stroke="none" fill="#DB7093"></path>
        <path d="M182.5631, 245.6914 C173.5448, 226.8883 181.5556, 226.8883 188.5373, 245.6914 Z" stroke="none" fill="#DB7093"></path>
        <path d="M186.6163, 244.7662 C188.773, 230.3641 193.7676, 236.6271 190.3411, 249.4371 Z" stroke="none" fill="#DB7093"></path>

        <polygon points="190.3411 249.4371, 189.8667 251.5158, 188.5373 253.1827, 186.6163 254.1079, 184.4841 254.1079, 182.5631 253.1827, 181.2337 251.5158, 180.7593 249.4371, 181.2337 247.3583, 182.5631 245.6914, 184.4841 244.7662, 186.6163 244.7662, 188.5373 245.6914, 189.8667 247.3583" stroke="none" fill="#FFFACD"></polygon>
    </g>
    <line x1="192.42453063689095" y1="261.0275886691018" x2="204.84515434565117" y2="242.52840183705996" stroke="#8FBC8B" stroke-width="2"></line>
    <line x1="194.42453063689095" y1="261.0275886691018" x2="206.84515434565117" y2="242.52840183705996" stroke="#008000" stroke-width="2"></line>
    <g transform-origin="204.8452 242.5284" transform="rotate(245) scale(0.778 1) ">
        <path d="M214.4014, 242.3342 C223.8452, 242.5284 221.9636, 250.7722 212.9982, 248.4822 Z" stroke="none" fill="#DB7093"></path>
        <path d="M214.4014, 246.7226 C216.6915, 257.3832 209.0731, 261.052 208.7198, 249.4587 Z" stroke="none" fill="#DB7093"></path>
        <path d="M210.9705, 249.4587 C200.6173, 261.052 192.9988, 257.3832 205.2889, 246.7226 Z" stroke="none" fill="#DB7093"></path>
        <path d="M206.6921, 248.4822 C187.7267, 250.7722 185.8452, 242.5284 205.2889, 242.3342 Z" stroke="none" fill="#DB7093"></path>
        <path d="M204.7881, 244.5284 C187.7267, 234.2846 192.9988, 227.6736 208.7198, 239.5981 Z" stroke="none" fill="#DB7093"></path>
        <path d="M206.6921, 240.5746 C200.6173, 224.0048 209.0731, 224.0048 212.9982, 240.5746 Z" stroke="none" fill="#DB7093"></path>
        <path d="M210.9705, 239.5981 C216.6915, 227.6736 221.9636, 234.2846 214.9022, 244.5284 Z" stroke="none" fill="#DB7093"></path>

        <polygon points="214.9022 244.5284, 214.4014 246.7226, 212.9982 248.4822, 210.9705 249.4587, 208.7198 249.4587, 206.6921 248.4822, 205.2889 246.7226, 204.7881 244.5284, 205.2889 242.3342, 206.6921 240.5746, 208.7198 239.5981, 210.9705 239.5981, 212.9982 240.5746, 214.4014 242.3342" stroke="none" fill="#FFFACD"></polygon>
    </g>
    <line x1="200" y1="290" x2="206.180339888089" y2="280.97886967428866" stroke="#8FBC8B" stroke-width="2"></line>
    <line x1="202" y1="290" x2="208.180339888089" y2="280.97886967428866" stroke="#008000" stroke-width="2"></line>
    <line x1="206.180339888089" y1="280.97886967428866" x2="198.632423773223" y2="268.1725102403633" stroke="#8FBC8B" stroke-width="2"></line>
    <line x1="208.180339888089" y1="280.97886967428866" x2="200.632423773223" y2="268.1725102403633" stroke="#008000" stroke-width="2"></line>
    <line x1="198.632423773223" y1="268.1725102403633" x2="207.71223376884313" y2="250.35237975701844" stroke="#8FBC8B" stroke-width="2"></line>
    <line x1="200.632423773223" y1="268.1725102403633" x2="209.71223376884313" y2="250.35237975701844" stroke="#008000" stroke-width="2"></line>
    <g transform-origin="207.7122 250.3524" transform="rotate(28) scale(0.698 1) ">
        <path d="M218.0287, 256.2737 C225.7122, 250.3524 223.9297, 258.1623 216.6993, 262.0981 Z" stroke="none" fill="#DB7093"></path>
        <path d="M218.0287, 260.4311 C218.9351, 264.4253 211.7176, 267.9011 212.6462, 263.0232 Z" stroke="none" fill="#DB7093"></path>
        <path d="M214.7783, 263.0232 C203.7069, 267.9011 196.4894, 264.4253 209.3958, 260.4311 Z" stroke="none" fill="#DB7093"></path>
        <path d="M210.7251, 262.0981 C191.4948, 258.1623 189.7122, 250.3524 209.3958, 256.2737 Z" stroke="none" fill="#DB7093"></path>
        <path d="M208.9213, 258.3524 C191.4948, 242.5425 196.4894, 236.2794 212.6462, 253.6816 Z" stroke="none" fill="#DB7093"></path>
        <path d="M210.7251, 254.6067 C203.7069, 232.8037 211.7176, 232.8037 216.6993, 254.6067 Z" stroke="none" fill="#DB7093"></path>
        <path d="M214.7783, 253.6816 C218.9351, 236.2794 223.9297, 242.5425 218.5032, 258.3524 Z" stroke="none" fill="#DB7093"></path>
        <polygon points="218.5032 258.3524, 218.0287 260.4311, 216.6993 262.0981, 214.7783 263.0232, 212.6462 263.0232, 210.7251 262.0981, 209.3958 260.4311, 208.9213 258.3524, 209.3958 256.2737, 210.7251 254.6067, 212.6462 253.6816, 214.7783 253.6816, 216.6993 254.6067, 218.0287 256.2737" stroke="none" fill="#FFFACD"></polygon>
    </g>
    <line x1="206.180339888089" y1="280.97886967428866" x2="220.84827339681507" y2="283.3924989356986" stroke="#8FBC8B" stroke-width="2"></line>
    <path transform-origin="206.1803 280.9789" transform="rotate(353) " d="M206.1803, 280.9789 c9.7339, -13.4481 9.7339, -13.4481 0, -35.2887 Z" stroke="none" fill="#008000"></path>
    <path transform-origin="206.1803 280.9789" transform="rotate(353) " d="M206.1803, 280.9789 c-10.4146, -16.2226 -10.4146, -16.2226 0, -35.2887 Z" stroke="none" fill="#8FBC8B"></path>
    <line x1="208.180339888089" y1="280.97886967428866" x2="222.84827339681507" y2="283.3924989356986" stroke="#008000" stroke-width="2"></line>
    <line x1="220.84827339681507" y1="283.3924989356986" x2="207.99252120202814" y2="268.07161007420524" stroke="#8FBC8B" stroke-width="2"></line>
    <line x1="222.84827339681507" y1="283.3924989356986" x2="209.99252120202814" y2="268.07161007420524" stroke="#008000" stroke-width="2"></line>
    <line x1="207.99252120202814" y1="268.07161007420524" x2="221.11370178290483" y2="252.97741847067692" stroke="#8FBC8B" stroke-width="2"></line>
    <g transform-origin="221.1137 252.9774" transform="rotate(218) scale(0.798 1) ">
        <path d="M224.9506, 253.1297 C237.1137, 252.9774 235.5292, 259.9196 223.7689, 258.3069 Z" stroke="none" fill="#DB7093"></path>
        <path d="M224.9506, 256.8252 C231.0895, 265.4867 224.674, 268.5763 220.1661, 259.1292 Z" stroke="none" fill="#DB7093"></path>
        <path d="M222.0613, 259.1292 C217.5534, 268.5763 211.1379, 265.4867 217.2768, 256.8252 Z" stroke="none" fill="#DB7093"></path>
        <path d="M218.4585, 258.3069 C206.6982, 259.9196 205.1137, 252.9774 217.2768, 253.1297 Z" stroke="none" fill="#DB7093"></path>
        <path d="M216.8551, 254.9774 C206.6982, 246.0353 211.1379, 240.4681 220.1661, 250.8256 Z" stroke="none" fill="#DB7093"></path>
        <path d="M218.4585, 251.6479 C217.5534, 237.3786 224.674, 237.3786 223.7689, 251.6479 Z" stroke="none" fill="#DB7093"></path>
        <path d="M222.0613, 250.8256 C231.0895, 240.4681 235.5292, 246.0353 225.3723, 254.9774 Z" stroke="none" fill="#DB7093"></path>
        <polygon points="225.3723 254.9774, 224.9506 256.8252, 223.7689 258.3069, 222.0613 259.1292, 220.1661 259.1292, 218.4585 258.3069, 217.2768 256.8252, 216.8551 254.9774, 217.2768 253.1297, 218.4585 251.6479, 220.1661 250.8256, 222.0613 250.8256, 223.7689 251.6479, 224.9506 253.1297" stroke="none" fill="#FFFACD"></polygon>
    </g>
</svg>